<?xml version="1.0" standalone="no"?>
<!DOCTYPE svg PUBLIC "-//W3C//DTD SVG 20010904//EN"
 "http://www.w3.org/TR/2001/REC-SVG-20010904/DTD/svg10.dtd">
<svg version="1.0" xmlns="http://www.w3.org/2000/svg"
 width="500.000000pt" height="500.000000pt" viewBox="0 0 500.000000 500.000000"
 preserveAspectRatio="xMidYMid meet">
<metadata>
Created by potrace 1.14, written by Peter Selinger 2001-2017
</metadata>
<g transform="translate(0.000000,500.000000) scale(0.100000,-0.100000)"
fill="#000000" stroke="none">
<path d="M2070 4986 c0 -4 49 -103 109 -220 60 -116 161 -314 226 -441 229
-449 359 -702 445 -870 48 -93 162 -317 254 -496 l166 -327 -94 -193 c-51
-107 -171 -351 -266 -544 -168 -342 -240 -491 -240 -499 0 -2 177 -3 393 -2
l392 1 48 25 c80 40 111 86 239 349 389 797 360 729 360 851 0 47 -5 105 -12
130 -10 39 -151 322 -405 815 -40 77 -145 284 -235 460 -89 176 -182 356 -205
400 -23 44 -68 132 -100 195 -69 136 -100 184 -157 240 -50 49 -144 103 -208
121 -53 14 -710 19 -710 5z"/>
<path d="M1553 3599 c-94 -17 -158 -75 -220 -200 -198 -397 -408 -834 -424
-881 -22 -65 -26 -197 -8 -263 10 -37 164 -351 314 -640 34 -66 131 -255 215
-420 84 -165 183 -358 220 -430 37 -71 111 -215 165 -320 54 -104 111 -209
126 -232 58 -84 192 -177 287 -198 37 -8 681 -10 689 -2 2 3 -46 104 -108 224
-61 120 -168 328 -237 463 -117 231 -230 451 -432 845 -48 94 -162 317 -254
496 l-166 326 150 307 c83 168 218 444 300 613 83 168 147 309 144 312 -8 9
-711 8 -761 0z"/>
</g>
</svg>
